#!OML:ASF X:\für Bonn\!DataBase\2005_08_12_Daniel\c3d\Daniel.ASF
:FULLY-SPECIFIED
:DEGREES
78
root 3.55027 16.7907 1.5695 -592.6 -92.8491 591.694
lowerback 29.1179 -0.657747 1.7934
upperback 6.57036 -1.21107 -2.74742
thorax -8.75334 -0.874038 -3.66036
lowerneck -7.62822 -0.113229 0.0880986
upperneck -14.3703 -1.16716 -4.27561
head -3.36928 -0.705871 -1.39657
rclavicle -9.34288e-015 -2.50469e-014
rhumerus -38.4053 7.84244 -98.3971
rradius 64.8545
rwrist 18.5795
rhand -21.0501 366.634
rfingers 7.12502
rthumb 5.326 -23.2787
lclavicle -9.34288e-015 -2.50469e-014
lhumerus -202.826 205.167 -81.9268
lradius 64.027
lwrist 29.1159
lhand -25.1367 10.7696
lfingers 7.12502
lthumb 1.37954 40.7449
rfemur -17.1275 -2.82396 10.6065
rtibia 46.5039
rfoot -23.219 -5.85619
rtoes -12.0356
lfemur -208.42 193.697 -200.001
ltibia 47.3338
lfoot 338.436 4.70406
ltoes 2.23329
79
root 3.52378 16.7819 1.58421 -592.685 -92.8335 591.566
lowerback 29.1754 -0.559241 1.69693
upperback 6.55442 -1.1099 -2.71548
thorax -8.7899 -0.825019 -3.60457
lowerneck -7.20415 -0.207236 -0.0880233
upperneck -14.5502 -1.28034 -4.13699
head -3.50844 -0.747764 -1.32065
rclavicle 3.97569e-016 2.82274e-014
rhumerus -36.564 8.68624 -98.3198
rradius 64.4112
rwrist 18.9124
rhand -21.0382 366.618
rfingers 7.12502
rthumb 5.33744 -23.2947
lclavicle 3.97569e-016 2.82274e-014
lhumerus -201.291 205.938 -82.379
lradius 63.9735
lwrist 29.3045
lhand -25.2894 11.0407
lfingers 7.12502
lthumb 1.2321 41.0169
rfemur -17.6229 -3.19992 10.4658
rtibia 47.6718
rfoot -22.5982 -5.75718
rtoes -12.5562
lfemur -208.165 193.561 -200.123
ltibia 47.5019
lfoot 338.299 4.53683
ltoes 2.16856
80
root 3.4968 16.7748 1.59881 -592.878 -92.8132 591.53
lowerback 29.2208 -0.461676 1.61194
upperback 6.5383 -1.00817 -2.69713
thorax -8.82146 -0.775991 -3.57114
lowerneck -6.76334 -0.290929 -0.166866
upperneck -14.7174 -1.38796 -4.04696
head -3.64828 -0.789986 -1.2772
rclavicle -5.1684e-015 2.38542e-015
rhumerus -34.6082 9.56798 -98.1951
rradius 64.061
rwrist 19.2639
rhand -20.9685 366.447
rfingers 7.12502
rthumb 5.40476 -23.4646
lclavicle -5.1684e-015 2.38542e-015
lhumerus -199.662 206.716 -82.9166
lradius 64.0472
lwrist 29.4706
lhand -25.3943 11.3735
lfingers 7.12502
lthumb 1.13078 41.3503
rfemur -18.1309 -3.58225 10.3186
rtibia 48.8545
rfoot -21.9883 -5.65717
rtoes -13.1404
lfemur -207.882 193.441 -200.252
ltibia 47.6501
lfoot 338.188 4.42361
ltoes 2.14715
81
root 3.46897 16.7668 1.61196 -593.062 -92.7912 591.465
lowerback 29.2534 -0.366768 1.52728
upperback 6.53183 -0.909626 -2.67277
thorax -8.83618 -0.7283 -3.52987
lowerneck -6.29078 -0.377777 -0.286405
upperneck -14.9096 -1.49851 -3.93223
head -3.80323 -0.831971 -1.21786
rclavicle -3.18055e-015 -3.37934e-014
rhumerus -32.5182 10.4707 -97.9882
rradius 63.7576
rwrist 19.5609
rhand -20.8895 366.198
rfingers 7.12502
rthumb 5.48107 -23.7108
lclavicle -3.18055e-015 -3.37934e-014
lhumerus -197.936 207.465 -83.5136
lradius 64.2443
lwrist 29.5872
lhand -25.5527 11.7728
lfingers 7.12502
lthumb 0.977763 41.7503
rfemur -18.6045 -3.92423 10.1776
rtibia 50.0141
rfoot -21.3773 -5.509
rtoes -13.6362
lfemur -207.569 193.341 -200.37
ltibia 47.7909
lfoot 338.032 4.28968
ltoes 2.19265
82
root 3.44067 16.7585 1.62461 -593.507 -92.7599 591.661
lowerback 29.2572 -0.271052 1.4436
upperback 6.52562 -0.810503 -2.65711
thorax -8.83696 -0.680124 -3.49908
lowerneck -5.82699 -0.447319 -0.361441
upperneck -15.0768 -1.58607 -3.82715
head -3.94862 -0.864605 -1.16898
rclavicle 6.36111e-015 6.36111e-015
rhumerus -30.3548 11.3907 -97.7271
rradius 63.6129
rwrist 19.7163
rhand -20.7351 365.851
rfingers 7.12502
rthumb 5.63011 -24.0547
lclavicle 6.36111e-015 6.36111e-015
lhumerus -196.133 208.172 -84.1902
lradius 64.5341
lwrist 29.6092
lhand -25.7514 12.1328
lfingers 7.12502
lthumb 0.785839 42.1111
rfemur -19.0771 -4.24069 10.0388
rtibia 51.1311
rfoot -20.7251 -5.33753
rtoes -13.9696
lfemur -207.253 193.228 -200.49
ltibia 47.938
lfoot 337.899 4.1838
ltoes 2.18814
83
root 3.4119 16.7481 1.63627 -593.909 -92.7081 591.783
lowerback 29.2873 -0.170933 1.3768
upperback 6.50786 -0.69912 -2.63046
thorax -8.86308 -0.626662 -3.47046
lowerneck -5.3371 -0.518698 -0.441346
upperneck -15.2261 -1.67365 -3.71545
head -4.0933 -0.896598 -1.11628
rclavicle 9.93923e-016 -7.15625e-015
rhumerus -28.1599 12.2603 -97.3614
rradius 63.6572
rwrist 19.7334
rhand -20.4854 365.53
rfingers 7.12502
rthumb 5.87123 -24.3688
lclavicle 9.93923e-016 -7.15625e-015
lhumerus -194.29 208.802 -84.8747
lradius 64.8915
lwrist 29.5718
lhand -25.9709 12.4737
lfingers 7.12502
lthumb 0.573896 42.4526
rfemur -19.4814 -4.53504 9.93085
rtibia 52.1751
rfoot -20.0551 -5.1387
rtoes -14.1738
lfemur -206.909 193.145 -200.586
ltibia 48.1033
lfoot 337.703 4.09438
ltoes 2.13721
